<?xml version="1.0" encoding="utf-8"?>
<!-- Generator: Adobe Illustrator 16.0.4, SVG Export Plug-In . SVG Version: 6.00 Build 0)  -->
<!DOCTYPE svg PUBLIC "-//W3C//DTD SVG 1.1//EN" "http://www.w3.org/Graphics/SVG/1.1/DTD/svg11.dtd">
<svg version="1.1" xmlns="http://www.w3.org/2000/svg" xmlns:xlink="http://www.w3.org/1999/xlink" x="0px" y="0px" width="1080px"
	 height="140px" viewBox="0 0 1080 140" enable-background="new 0 0 1080 140" xml:space="preserve">
<g id="Слой_1">
	<g>
		<path d="M25,116c-0.5527344,0-1-0.4472656-1-1V25c0-0.5527344,0.4472656-1,1-1s1,0.4472656,1,1v90
			C26,115.5527344,25.5527344,116,25,116z"/>
	</g>
	<g>
		<path d="M1055,116c-0.5527344,0-1-0.4472656-1-1V25c0-0.5527344,0.4472656-1,1-1s1,0.4472656,1,1v90
			C1056,115.5527344,1055.5527344,116,1055,116z"/>
	</g>
	<g>
		<path d="M1060,31c-0.2558594,0-0.5117188-0.0976562-0.7070312-0.2929688c-0.390625-0.390625-0.390625-1.0234375,0-1.4140625
			L1063.5859375,25L1055,16.4140625l-9.2929688,9.2929688C1045.5195312,25.8945312,1045.265625,26,1045,26H35
			c-0.265625,0-0.5195312-0.1054688-0.7070312-0.2929688L25,16.4140625L16.4140625,25l4.2929688,4.2929688
			c0.390625,0.390625,0.390625,1.0234375,0,1.4140625s-1.0234375,0.390625-1.4140625,0l-5-5
			c-0.390625-0.390625-0.390625-1.0234375,0-1.4140625l10-10c0.390625-0.390625,1.0234375-0.390625,1.4140625,0L35.4140625,24
			h1009.171875l9.7070312-9.7070312c0.390625-0.390625,1.0234375-0.390625,1.4140625,0l10,10
			c0.390625,0.390625,0.390625,1.0234375,0,1.4140625l-5,5C1060.5117188,30.9023438,1060.2558594,31,1060,31z"/>
	</g>
	<g>
		<path d="M1055,126c-0.2558594,0-0.5117188-0.0976562-0.7070312-0.2929688L1044.5859375,116H35.4140625l-9.7070312,9.7070312
			c-0.390625,0.390625-1.0234375,0.390625-1.4140625,0l-10-10c-0.390625-0.390625-0.390625-1.0234375,0-1.4140625l5-5
			c0.390625-0.390625,1.0234375-0.390625,1.4140625,0s0.390625,1.0234375,0,1.4140625L16.4140625,115L25,123.5859375
			l9.2929688-9.2929688C34.4804688,114.1054688,34.734375,114,35,114h1010c0.265625,0,0.5195312,0.1054688,0.7070312,0.2929688
			L1055,123.5859375L1063.5859375,115l-4.2929688-4.2929688c-0.390625-0.390625-0.390625-1.0234375,0-1.4140625
			s1.0234375-0.390625,1.4140625,0l5,5c0.390625,0.390625,0.390625,1.0234375,0,1.4140625l-10,10
			C1055.5117188,125.9023438,1055.2558594,126,1055,126z"/>
	</g>
</g>
<g id="specctr" display="none">
	<g id="Text_Properties" display="inline">
	</g>
	<g id="Dimensions" display="inline">
	</g>
	<g id="Object_Properties" display="inline">
	</g>
</g>
<g id="Слой_6">
</g>
<g id="Слой_7">
</g>
</svg>
