<?xml version="1.0" encoding="utf-8"?>
<!-- Generator: Adobe Illustrator 16.0.4, SVG Export Plug-In . SVG Version: 6.00 Build 0)  -->
<!DOCTYPE svg PUBLIC "-//W3C//DTD SVG 1.1//EN" "http://www.w3.org/Graphics/SVG/1.1/DTD/svg11.dtd">
<svg version="1.1" xmlns="http://www.w3.org/2000/svg" xmlns:xlink="http://www.w3.org/1999/xlink" x="0px" y="0px" width="765px"
	 height="155px" viewBox="0 0 765 155" enable-background="new 0 0 765 155" xml:space="preserve">
<g id="Слой_1">
	<g>
		<g>
			<path d="M242.0019531,44.2001953v9.5996094l2.3994141,0.6005859V55h-11.3994141v-0.5996094l2.3994141-0.6005859V28.2001953
				l-2.3994141-0.6005859V27h11.1992188c2.2929688,0,4.2333984,0.1933594,5.8203125,0.5800781
				c1.5859375,0.3867188,2.8662109,0.953125,3.8398438,1.6992188c0.9726562,0.7480469,1.6738281,1.6474609,2.0996094,2.7011719
				c0.4267578,1.0527344,0.640625,2.2597656,0.640625,3.6191406c0,1.3603516-0.2138672,2.5673828-0.640625,3.6210938
				c-0.4257812,1.0527344-1.1269531,1.953125-2.0996094,2.6992188c-0.9736328,0.7470703-2.2539062,1.3144531-3.8398438,1.7001953
				c-1.5869141,0.3867188-3.5273438,0.5800781-5.8203125,0.5800781H242.0019531z M244.2011719,43.2001953
				c0.8007812,0,1.5410156-0.1533203,2.2207031-0.4599609s1.2734375-0.7734375,1.7792969-1.4003906
				c0.5058594-0.6259766,0.9003906-1.4130859,1.1796875-2.359375c0.28125-0.9472656,0.4199219-2.0742188,0.4199219-3.3808594
				c0-2.5859375-0.5332031-4.5-1.5996094-5.7402344c-1.0664062-1.2392578-2.4003906-1.859375-4-1.859375h-2.1992188v15.2001953
				H244.2011719z"/>
		</g>
		<g>
			<path d="M259.2011719,28.2001953l-2-0.6005859V27h5.1992188c1.4140625,0,2.5332031,0.3398438,3.3613281,1.0195312
				c0.8261719,0.6806641,1.5058594,1.4746094,2.0390625,2.3808594l6.7597656,11.7197266l5.8398438-13.3203125l-3-1.2001953V27
				h7.4003906v0.5996094l-3.1992188,1.2001953l-9,20.6005859c-0.9609375,2.2128906-1.9199219,3.7998047-2.8808594,4.7597656
				c-0.9589844,0.9599609-2,1.4394531-3.1191406,1.4394531c-1.2011719,0-2.1679688-0.3466797-2.9003906-1.0390625
				c-0.734375-0.6933594-1.0996094-1.546875-1.0996094-2.5605469s0.3056641-1.8330078,0.9199219-2.4599609
				c0.6132812-0.6259766,1.3730469-0.9404297,2.2792969-0.9404297c0.2128906,0,0.40625,0.0136719,0.5800781,0.0410156
				c0.1738281,0.0263672,0.3398438,0.0527344,0.5,0.0800781c0.1601562,0.0263672,0.3339844,0.0527344,0.5195312,0.0791016v5.6005859
				c0.6132812-0.1064453,1.2607422-0.5410156,1.9414062-1.3007812c0.6796875-0.7597656,1.3652344-1.9921875,2.0585938-3.6992188
				L259.2011719,28.2001953z"/>
		</g>
		<g>
			<path d="M296.8408203,26.4003906c0.9326172,0,1.7929688,0.1396484,2.5800781,0.4199219
				c0.7861328,0.2792969,1.4599609,0.5800781,2.0205078,0.9003906C302.1074219,28.09375,302.6933594,28.5195312,303.2011719,29
				c0.2128906-0.3457031,0.4453125-0.6601562,0.6992188-0.9394531c0.2539062-0.28125,0.4863281-0.5136719,0.7011719-0.7011719
				c0.265625-0.2128906,0.5322266-0.3994141,0.7988281-0.5595703h1v7.6005859h-1.5996094
				c-0.3730469-1.2802734-0.8935547-2.4404297-1.5605469-3.4804688c-0.5595703-0.8798828-1.3066406-1.6855469-2.2392578-2.4199219
				c-0.9345703-0.7324219-2.0673828-1.0996094-3.3994141-1.0996094c-0.8007812,0-1.5878906,0.2197266-2.3613281,0.6601562
				c-0.7734375,0.4394531-1.4589844,1.1865234-2.0595703,2.2392578c-0.5996094,1.0537109-1.0791016,2.4541016-1.4404297,4.2001953
				c-0.359375,1.7470703-0.5390625,3.9140625-0.5390625,6.5c0,2.6132812,0.1855469,4.7871094,0.5595703,6.5195312
				c0.3730469,1.734375,0.8935547,3.1269531,1.5595703,4.1806641c0.6669922,1.0537109,1.453125,1.7998047,2.3603516,2.2392578
				c0.90625,0.4404297,1.8798828,0.6601562,2.9208984,0.6601562c0.9589844,0,1.8789062-0.2060547,2.7597656-0.6191406
				c0.8789062-0.4140625,1.6660156-0.9736328,2.359375-1.6806641c0.6933594-0.7060547,1.2460938-1.5126953,1.6601562-2.4199219
				c0.4130859-0.90625,0.6201172-1.8662109,0.6201172-2.8798828h1c0,1.1464844-0.2333984,2.2402344-0.7001953,3.2792969
				c-0.4667969,1.0410156-1.1132812,1.9550781-1.9394531,2.7402344c-0.8271484,0.7871094-1.8007812,1.4140625-2.9199219,1.8808594
				c-1.1210938,0.4658203-2.3339844,0.6992188-3.640625,0.6992188c-2.1074219,0-4-0.3203125-5.6796875-0.9589844
				c-1.6796875-0.640625-3.1074219-1.5800781-4.2802734-2.8203125c-1.1738281-1.2402344-2.0732422-2.7666016-2.7001953-4.5800781
				S284.2011719,43.3466797,284.2011719,41c0-2.3457031,0.3066406-4.4257812,0.9199219-6.2402344
				c0.6132812-1.8125,1.4804688-3.3398438,2.5996094-4.5800781c1.1201172-1.2402344,2.453125-2.1796875,4-2.8203125
				C293.2675781,26.7207031,294.9746094,26.4003906,296.8408203,26.4003906z"/>
		</g>
		<g>
			<path d="M322.0410156,26.4003906c0.9335938,0,1.7929688,0.1396484,2.5800781,0.4199219
				c0.7861328,0.2792969,1.4599609,0.5800781,2.0195312,0.9003906C327.3066406,28.09375,327.8945312,28.5195312,328.4003906,29
				c0.2138672-0.3457031,0.4472656-0.6601562,0.7011719-0.9394531c0.2519531-0.28125,0.4863281-0.5136719,0.6992188-0.7011719
				c0.2666016-0.2128906,0.5332031-0.3994141,0.8007812-0.5595703h1v7.6005859h-1.6005859
				c-0.3740234-1.2802734-0.8935547-2.4404297-1.5595703-3.4804688c-0.5605469-0.8798828-1.3066406-1.6855469-2.2402344-2.4199219
				c-0.9335938-0.7324219-2.0664062-1.0996094-3.4003906-1.0996094c-0.7998047,0-1.5859375,0.2197266-2.359375,0.6601562
				c-0.7734375,0.4394531-1.4609375,1.1865234-2.0605469,2.2392578c-0.5996094,1.0537109-1.0800781,2.4541016-1.4394531,4.2001953
				c-0.3603516,1.7470703-0.5410156,3.9140625-0.5410156,6.5c0,2.6132812,0.1875,4.7871094,0.5605469,6.5195312
				c0.3730469,1.734375,0.8925781,3.1269531,1.5605469,4.1806641c0.6660156,1.0537109,1.453125,1.7998047,2.359375,2.2392578
				c0.90625,0.4404297,1.8808594,0.6601562,2.9199219,0.6601562c0.9609375,0,1.8808594-0.2060547,2.7597656-0.6191406
				c0.8808594-0.4140625,1.6669922-0.9736328,2.3603516-1.6806641c0.6933594-0.7060547,1.2470703-1.5126953,1.6601562-2.4199219
				c0.4130859-0.90625,0.6201172-1.8662109,0.6201172-2.8798828h1c0,1.1464844-0.234375,2.2402344-0.7001953,3.2792969
				c-0.4667969,1.0410156-1.1142578,1.9550781-1.9404297,2.7402344c-0.8261719,0.7871094-1.7988281,1.4140625-2.9199219,1.8808594
				c-1.1191406,0.4658203-2.3339844,0.6992188-3.6396484,0.6992188c-2.1064453,0-4-0.3203125-5.6796875-0.9589844
				c-1.6806641-0.640625-3.1064453-1.5800781-4.2802734-2.8203125s-2.0742188-2.7666016-2.6992188-4.5800781
				c-0.6269531-1.8134766-0.9414062-3.8935547-0.9414062-6.2402344c0-2.3457031,0.3066406-4.4257812,0.9208984-6.2402344
				c0.6123047-1.8125,1.4794922-3.3398438,2.5996094-4.5800781s2.453125-2.1796875,4-2.8203125
				C318.4667969,26.7207031,320.1738281,26.4003906,322.0410156,26.4003906z"/>
		</g>
		<g>
			<path d="M350.2011719,39.7998047c1.8925781,0,3.2929688,0.3408203,4.1992188,1.0205078s1.5068359,1.4736328,1.8007812,2.3798828
				l3.5996094,10.5996094l2,0.6005859V55h-4.7998047c-1.4931641,0-2.6142578-0.3125-3.3603516-0.9394531
				s-1.2929688-1.4472656-1.6396484-2.4609375l-3.7998047-11h-3.5996094v13.2001953l2.3994141,0.6005859V55h-11.3994141v-0.5996094
				l2.3994141-0.6005859V28.2001953l-2.3994141-0.6005859V27h11.3994141v0.5996094l-2.3994141,0.6005859v11.3994141h2
				c1.0126953,0,1.8525391-0.3320312,2.5195312-1C349.7871094,37.9335938,350.28125,37,350.6015625,35.7998047l1.3994141-5.2001953
				c0.3203125-1.1992188,0.8466797-2.1660156,1.5800781-2.8994141s1.6064453-1.1005859,2.6201172-1.1005859
				c1.1992188,0,2.1660156,0.3476562,2.9003906,1.0410156c0.7324219,0.6933594,1.0996094,1.546875,1.0996094,2.5595703
				c0,1.0136719-0.3066406,1.8330078-0.9199219,2.4599609s-1.3740234,0.9394531-2.2802734,0.9394531
				c-0.2138672,0-0.4199219-0.0058594-0.6201172-0.0195312c-0.1992188-0.0136719-0.3671875-0.0332031-0.5-0.0605469
				c-0.1865234-0.0253906-0.3466797-0.0664062-0.4804688-0.1191406v-5.6005859
				c-0.4257812,0.1064453-0.8457031,0.4003906-1.2597656,0.8798828c-0.4130859,0.4804688-0.7265625,1.1201172-0.9394531,1.9199219
				l-1.4003906,5.2001953c-0.2128906,0.7998047-0.4589844,1.4599609-0.7402344,1.9794922
				C350.78125,38.2998047,350.4941406,38.7070312,350.2011719,39c-0.3203125,0.3466797-0.6542969,0.6132812-1,0.7998047H350.2011719
				z"/>
		</g>
		<g>
			<path d="M364,27.5996094V27h11.4003906v0.5996094L373,28.2001953v20.2001953l9.4003906-17.2001953v-3L380,27.5996094V27
				h11.4003906v0.5996094L389,28.2001953v25.5996094l2.4003906,0.6005859V55H380v-0.5996094l2.4003906-0.6005859V33.5996094
				L373,50.7998047v3l2.4003906,0.6005859V55H364v-0.5996094l2.4003906-0.6005859V28.2001953L364,27.5996094z"/>
		</g>
		<g>
			<path d="M395.4003906,27.5996094V27h11.4003906v0.5996094l-2.4003906,0.6005859v20.2001953l9.4003906-17.2001953v-3
				l-2.4003906-0.6005859V27h11.4003906v0.5996094l-2.4003906,0.6005859v25.5996094l2.4003906,0.6005859V55h-11.4003906v-0.5996094
				l2.4003906-0.6005859V33.5996094l-9.4003906,17.2001953v3l2.4003906,0.6005859V55h-11.4003906v-0.5996094l2.4003906-0.6005859
				V28.2001953L395.4003906,27.5996094z M409,23.4003906c0.6933594,0,1.2333984-0.0742188,1.6210938-0.2207031
				c0.3857422-0.1464844,0.5791016-0.2060547,0.5791016-0.1796875v-4.4003906
				c0.1601562-0.0253906,0.3203125-0.0527344,0.4794922-0.0800781c0.1337891-0.0253906,0.28125-0.0527344,0.4414062-0.0800781
				c0.1591797-0.0253906,0.3193359-0.0390625,0.4794922-0.0390625c0.6923828,0,1.2666016,0.2265625,1.7197266,0.6796875
				S415,20.1074219,415,20.7998047c0,0.9072266-0.453125,1.7001953-1.359375,2.3798828
				c-0.9072266,0.6796875-2.4541016,1.0205078-4.640625,1.0205078c-1.09375,0-2.0195312-0.0927734-2.7792969-0.2802734
				c-0.7597656-0.1855469-1.3808594-0.4335938-1.8603516-0.7402344s-0.8271484-0.6660156-1.0400391-1.0800781
				C403.1064453,21.6875,403,21.2539062,403,20.7998047c0-0.6923828,0.2265625-1.2666016,0.6796875-1.7197266
				s1.0273438-0.6796875,1.7207031-0.6796875c0.1328125,0,0.2861328,0.0136719,0.4599609,0.0390625
				c0.1728516,0.0273438,0.3261719,0.0546875,0.4599609,0.0800781c0.1601562,0.0273438,0.3203125,0.0546875,0.4804688,0.0800781V23
				c0-0.0263672,0.1933594,0.0332031,0.5800781,0.1796875C407.7666016,23.3261719,408.3066406,23.4003906,409,23.4003906z"/>
		</g>
		<g>
			<path d="M438.7988281,54c0.7207031-0.5332031,1.3740234-1.2265625,1.9609375-2.0800781
				c0.5058594-0.7197266,0.9863281-1.6523438,1.4394531-2.7998047C442.6523438,47.9736328,442.9199219,46.5996094,443,45
				l0.7988281-16.5996094L441,27.5996094V27h21v0.5996094l-2.4003906,0.6005859V54h3.7998047v7.7998047h-1.2001953
				c-0.6660156-0.4794922-1.2402344-1.0673828-1.7197266-1.7597656c-0.4267578-0.5869141-0.8134766-1.2939453-1.1601562-2.1201172
				S458.7988281,56.1201172,458.7988281,55h-18.5996094c0,1.1201172-0.1796875,2.09375-0.5390625,2.9199219
				c-0.3613281,0.8261719-0.7539062,1.5332031-1.1806641,2.1201172c-0.4794922,0.6923828-1.0400391,1.2802734-1.6806641,1.7597656
				h-1.1992188V54H438.7988281z M444.1992188,45c-0.0800781,1.5996094-0.3339844,2.9736328-0.7597656,4.1201172
				c-0.4267578,1.1474609-0.8798828,2.0800781-1.359375,2.7998047c-0.5605469,0.8535156-1.1875,1.546875-1.8808594,2.0800781H453V28
				h-8L444.1992188,45z"/>
		</g>
		<g>
			<path d="M491.7988281,41c0,2.3466797-0.3125,4.4267578-0.9394531,6.2402344s-1.5058594,3.3398438-2.640625,4.5800781
				c-1.1328125,1.2402344-2.5,2.1796875-4.0996094,2.8203125c-1.5996094,0.6386719-3.3730469,0.9589844-5.3203125,0.9589844
				c-1.9462891,0-3.71875-0.3203125-5.3193359-0.9589844c-1.6005859-0.640625-2.9667969-1.5800781-4.1005859-2.8203125
				c-1.1328125-1.2402344-2.0136719-2.7666016-2.6386719-4.5800781c-0.6269531-1.8134766-0.9414062-3.8935547-0.9414062-6.2402344
				c0-2.3457031,0.3144531-4.4257812,0.9414062-6.2402344c0.625-1.8125,1.5058594-3.3398438,2.6386719-4.5800781
				c1.1337891-1.2402344,2.5-2.1796875,4.1005859-2.8203125c1.6005859-0.6386719,3.3730469-0.9589844,5.3193359-0.9589844
				c1.9472656,0,3.7207031,0.3203125,5.3203125,0.9589844C485.71875,28,487.0859375,28.9394531,488.21875,30.1796875
				c1.1347656,1.2402344,2.0136719,2.7675781,2.640625,4.5800781C491.4863281,36.5742188,491.7988281,38.6542969,491.7988281,41z
				 M484.7988281,41c0-2.640625-0.1796875-4.8457031-0.5390625-6.6201172
				c-0.359375-1.7724609-0.8261719-3.1923828-1.4003906-4.2597656c-0.5742188-1.0664062-1.2207031-1.8203125-1.9394531-2.2607422
				c-0.7207031-0.4394531-1.4277344-0.6591797-2.1210938-0.6591797s-1.3994141,0.2197266-2.1191406,0.6591797
				c-0.7207031,0.4404297-1.3671875,1.1943359-1.9394531,2.2607422c-0.5742188,1.0673828-1.0410156,2.4873047-1.4003906,4.2597656
				C472.9794922,36.1542969,472.7988281,38.359375,472.7988281,41s0.1806641,4.8466797,0.5410156,6.6201172
				c0.359375,1.7734375,0.8261719,3.1943359,1.4003906,4.2597656c0.5722656,1.0673828,1.21875,1.8203125,1.9394531,2.2607422
				c0.7197266,0.4394531,1.4257812,0.6591797,2.1191406,0.6591797s1.4003906-0.2197266,2.1210938-0.6591797
				c0.71875-0.4404297,1.3652344-1.1933594,1.9394531-2.2607422c0.5742188-1.0654297,1.0410156-2.4863281,1.4003906-4.2597656
				S484.7988281,43.640625,484.7988281,41z"/>
		</g>
		<g>
			<path d="M531,27v0.5996094l-2.4003906,0.6005859v25.5996094L531,54.4003906V55h-11.4003906v-0.5996094L522,53.7998047V32
				l-9.4003906,23.4003906h-1.2001953L499.1992188,32v21.2001953l3.2001953,1.2001953V55h-7.5996094v-0.5996094L498,53.2001953v-25
				l-2.8007812-0.6005859V27h5.4003906c0.7460938,0,1.4003906,0.0869141,1.9599609,0.2597656
				c0.5595703,0.1738281,1.0527344,0.4072266,1.4804688,0.7001953c0.4257812,0.2939453,0.7929688,0.6474609,1.0996094,1.0595703
				c0.3066406,0.4140625,0.5927734,0.8740234,0.8603516,1.3808594l8.7197266,16.6796875l6.6796875-16.6796875
				c0.2128906-0.5605469,0.4599609-1.046875,0.7402344-1.4609375c0.2802734-0.4121094,0.6201172-0.765625,1.0195312-1.0595703
				c0.4003906-0.2929688,0.8935547-0.5126953,1.4804688-0.6591797C525.2255859,27.0742188,525.9462891,27,526.7998047,27H531z"/>
		</g>
	</g>
	<g>
		<g>
			<path d="M335.875,115.9003906l-1.7988281-0.4501953V115h8.3994141v0.4501953l-1.7998047,0.4501953v13.1992188
				l1.7998047,0.4501953V130h-8.3994141v-0.4501953l1.7988281-0.4501953v-5.25
				c-0.2402344,0.1601562-0.5195312,0.2910156-0.8398438,0.390625c-0.2792969,0.0996094-0.6152344,0.1855469-1.0048828,0.2548828
				c-0.3896484,0.0703125-0.8251953,0.1044922-1.3046875,0.1044922c-2.0205078,0-3.5009766-0.4042969-4.4404297-1.2148438
				C327.3457031,122.5751953,326.875,121.5302734,326.875,120.25v-4.3496094l-1.7988281-0.4501953V115h8.3994141v0.4501953
				l-1.7998047,0.4501953V120.25c0,0.6796875,0.0546875,1.25,0.1640625,1.7099609
				c0.1103516,0.4599609,0.2597656,0.8300781,0.4511719,1.1103516c0.1894531,0.2792969,0.4238281,0.4794922,0.7050781,0.5996094
				c0.2792969,0.1201172,0.5888672,0.1796875,0.9296875,0.1796875c0.2597656,0,0.5097656-0.0341797,0.75-0.1044922
				c0.2402344-0.0693359,0.4492188-0.1552734,0.6298828-0.2548828c0.2197266-0.0996094,0.4091797-0.2304688,0.5693359-0.390625
				V115.9003906z"/>
		</g>
		<g>
			<path d="M351.9257812,114.5498047c1.1992188,0,2.2646484,0.1611328,3.1943359,0.4794922
				c0.9306641,0.3203125,1.7148438,0.765625,2.3544922,1.3359375c0.640625,0.5703125,1.125,1.25,1.4550781,2.0390625
				c0.3300781,0.7910156,0.4960938,1.65625,0.4960938,2.5957031v8.0996094l1.7988281,0.4501953V130h-2.6992188
				c-0.7207031,0-1.3007812-0.1152344-1.7402344-0.3457031c-0.4394531-0.2285156-0.7900391-0.484375-1.0498047-0.7636719
				c-0.2998047-0.3398438-0.5205078-0.7207031-0.6601562-1.140625c-0.2607422,0.5205078-0.5898438,0.9707031-0.9892578,1.3496094
				c-0.3408203,0.3408203-0.7910156,0.6503906-1.3505859,0.9296875c-0.5595703,0.28125-1.2294922,0.4208984-2.0107422,0.4208984
				c-0.9394531,0-1.7539062-0.1044922-2.4443359-0.3154297c-0.6904297-0.2099609-1.2646484-0.5-1.7255859-0.8691406
				c-0.4589844-0.3710938-0.8046875-0.8007812-1.0341797-1.2910156c-0.2304688-0.4892578-0.3447266-1.0146484-0.3447266-1.5742188
				c0-0.4609375,0.0488281-0.8847656,0.1494141-1.2753906s0.2197266-0.734375,0.3603516-1.0351562
				c0.1601562-0.359375,0.3398438-0.6894531,0.5390625-0.9902344c0.8408203-0.1992188,1.7304688-0.3789062,2.6708984-0.5390625
				c0.7998047-0.140625,1.7001953-0.2753906,2.7001953-0.40625c1-0.1289062,2.0097656-0.2138672,3.0292969-0.2539062V121
				c0-1.1601562-0.0742188-2.1191406-0.2246094-2.8798828c-0.1503906-0.7597656-0.3652344-1.3603516-0.6445312-1.7998047
				c-0.28125-0.4394531-0.6259766-0.7451172-1.0351562-0.9160156c-0.4101562-0.1689453-0.875-0.2539062-1.3955078-0.2539062
				c-0.2197266,0-0.4199219,0.0146484-0.6005859,0.0449219c-0.1796875,0.0292969-0.3398438,0.0644531-0.4794922,0.1044922
				c-0.1601562,0.0595703-0.2998047,0.1103516-0.4199219,0.1503906v4.5
				c-0.1396484,0.0400391-0.2705078,0.0703125-0.3896484,0.0898438c-0.1201172,0.0205078-0.2460938,0.0351562-0.375,0.0449219
				c-0.1308594,0.0107422-0.2753906,0.0146484-0.4355469,0.0146484c-0.6796875,0-1.2246094-0.2050781-1.6347656-0.6152344
				c-0.4101562-0.4091797-0.6152344-0.9541016-0.6152344-1.6347656c0-0.4199219,0.1054688-0.8242188,0.3154297-1.2148438
				c0.2099609-0.3896484,0.5400391-0.7392578,0.9892578-1.0498047c0.4511719-0.3095703,1.0253906-0.5595703,1.7255859-0.75
				S350.9453125,114.5498047,351.9257812,114.5498047z M350.7246094,122.9501953
				c-0.1191406,0.2597656-0.2197266,0.5595703-0.2988281,0.8994141c-0.0800781,0.28125-0.1503906,0.6113281-0.2109375,0.9902344
				c-0.0595703,0.3808594-0.0898438,0.8007812-0.0898438,1.2597656c0,1.2001953,0.1855469,2.0507812,0.5546875,2.5507812
				c0.3710938,0.5,0.7851562,0.75,1.2460938,0.75c0.4589844,0,0.8544922-0.125,1.1845703-0.375
				s0.6044922-0.5253906,0.8251953-0.8251953c0.2597656-0.3603516,0.4902344-0.7607422,0.6894531-1.2001953v-4.3496094
				c-0.4599609,0-0.9199219,0.0146484-1.3798828,0.0449219c-0.4599609,0.0292969-0.8798828,0.0644531-1.2597656,0.1044922
				C351.5449219,122.859375,351.125,122.9101562,350.7246094,122.9501953z"/>
		</g>
		<g>
			<path d="M372.625,115.4501953V115h8.4003906v0.4501953l-1.8007812,0.4501953v13.1992188l1.8007812,0.4501953V130H372.625
				v-0.4501953l1.8007812-0.4501953v-9.8994141l-4.8007812,8.25v1.6494141l1.8007812,0.4501953V130h-8.4003906v-0.4501953
				l1.7998047-0.4501953v-13.1992188l-1.7998047-0.4501953V115h8.4003906v0.4501953L369.625,115.9003906v9.8994141l4.8007812-8.25
				v-1.6494141L372.625,115.4501953z M372.0253906,112.2998047c0.5195312,0,0.9248047-0.0546875,1.2148438-0.1650391
				c0.2890625-0.109375,0.4355469-0.1542969,0.4355469-0.1347656v-3.2998047
				c0.1191406-0.0205078,0.2392578-0.0400391,0.359375-0.0595703c0.0996094-0.0205078,0.2099609-0.0410156,0.3300781-0.0605469
				s0.2402344-0.0302734,0.359375-0.0302734c0.5205078,0,0.9501953,0.1708984,1.2910156,0.5107422
				c0.3398438,0.3398438,0.5097656,0.7695312,0.5097656,1.2890625c0,0.6806641-0.3398438,1.2753906-1.0195312,1.7851562
				c-0.6806641,0.5097656-1.8408203,0.765625-3.4804688,0.765625c-0.8203125,0-1.515625-0.0703125-2.0849609-0.2109375
				c-0.5703125-0.1386719-1.0351562-0.3242188-1.3955078-0.5546875c-0.359375-0.2294922-0.6201172-0.5-0.7792969-0.8095703
				c-0.1601562-0.3095703-0.2402344-0.6347656-0.2402344-0.9755859c0-0.5195312,0.1699219-0.9492188,0.5097656-1.2890625
				s0.7695312-0.5107422,1.2900391-0.5107422c0.0996094,0,0.2148438,0.0107422,0.3447266,0.0302734
				s0.2451172,0.0400391,0.3457031,0.0605469c0.1191406,0.0195312,0.2402344,0.0390625,0.359375,0.0595703V112
				c0-0.0195312,0.1445312,0.0253906,0.4355469,0.1347656C371.0996094,112.2451172,371.5048828,112.2998047,372.0253906,112.2998047
				z"/>
		</g>
		<g>
			<path d="M392.7246094,115.4501953V115H401.125v0.4501953l-1.7998047,0.4501953v13.1992188l1.7998047,0.4501953V130h-8.4003906
				v-0.4501953l1.8007812-0.4501953v-6.2998047h-4.5v6.2998047l1.7998047,0.4501953V130h-8.3994141v-0.4501953l1.7988281-0.4501953
				v-13.1992188l-1.7988281-0.4501953V115h8.3994141v0.4501953l-1.7998047,0.4501953v6.1494141h4.5v-6.1494141
				L392.7246094,115.4501953z"/>
		</g>
		<g>
			<path d="M410.5742188,114.5498047c1.2011719,0,2.265625,0.1611328,3.1953125,0.4794922
				c0.9296875,0.3203125,1.7148438,0.765625,2.3554688,1.3359375c0.6396484,0.5703125,1.125,1.25,1.4550781,2.0390625
				c0.3300781,0.7910156,0.4941406,1.65625,0.4941406,2.5957031v8.0996094l1.8007812,0.4501953V130h-2.7001953
				c-0.7197266,0-1.2998047-0.1152344-1.7402344-0.3457031c-0.4404297-0.2285156-0.7900391-0.484375-1.0498047-0.7636719
				c-0.3007812-0.3398438-0.5205078-0.7207031-0.6601562-1.140625c-0.2597656,0.5205078-0.5898438,0.9707031-0.9902344,1.3496094
				c-0.3398438,0.3408203-0.7900391,0.6503906-1.3496094,0.9296875c-0.5605469,0.28125-1.2304688,0.4208984-2.0097656,0.4208984
				c-0.9404297,0-1.7558594-0.1044922-2.4453125-0.3154297c-0.6894531-0.2099609-1.265625-0.5-1.7246094-0.8691406
				c-0.4609375-0.3710938-0.8056641-0.8007812-1.0351562-1.2910156c-0.2304688-0.4892578-0.3457031-1.0146484-0.3457031-1.5742188
				c0-0.4609375,0.0507812-0.8847656,0.1503906-1.2753906s0.2197266-0.734375,0.359375-1.0351562
				c0.1601562-0.359375,0.3398438-0.6894531,0.5410156-0.9902344c0.8398438-0.1992188,1.7294922-0.3789062,2.6699219-0.5390625
				c0.7988281-0.140625,1.6992188-0.2753906,2.6992188-0.40625c1-0.1289062,2.0107422-0.2138672,3.03125-0.2539062V121
				c0-1.1601562-0.0761719-2.1191406-0.2255859-2.8798828c-0.1494141-0.7597656-0.3652344-1.3603516-0.6455078-1.7998047
				c-0.2792969-0.4394531-0.625-0.7451172-1.0351562-0.9160156c-0.4101562-0.1689453-0.875-0.2539062-1.3945312-0.2539062
				c-0.2207031,0-0.4199219,0.0146484-0.5996094,0.0449219c-0.1796875,0.0292969-0.3408203,0.0644531-0.4804688,0.1044922
				c-0.1601562,0.0595703-0.2998047,0.1103516-0.4199219,0.1503906v4.5c-0.140625,0.0400391-0.2695312,0.0703125-0.390625,0.0898438
				c-0.1191406,0.0205078-0.2441406,0.0351562-0.375,0.0449219c-0.1289062,0.0107422-0.2744141,0.0146484-0.4335938,0.0146484
				c-0.6806641,0-1.2265625-0.2050781-1.6357422-0.6152344c-0.4101562-0.4091797-0.6142578-0.9541016-0.6142578-1.6347656
				c0-0.4199219,0.1044922-0.8242188,0.3144531-1.2148438c0.2099609-0.3896484,0.5400391-0.7392578,0.9902344-1.0498047
				c0.4492188-0.3095703,1.0244141-0.5595703,1.7246094-0.75
				C408.7539062,114.6445312,409.5947266,114.5498047,410.5742188,114.5498047z M409.375,122.9501953
				c-0.1201172,0.2597656-0.2207031,0.5595703-0.3007812,0.8994141c-0.0800781,0.28125-0.1494141,0.6113281-0.2089844,0.9902344
				c-0.0605469,0.3808594-0.0898438,0.8007812-0.0898438,1.2597656c0,1.2001953,0.1835938,2.0507812,0.5546875,2.5507812
				c0.3691406,0.5,0.7841797,0.75,1.2441406,0.75c0.4609375,0,0.8554688-0.125,1.1855469-0.375
				s0.6044922-0.5253906,0.8242188-0.8251953c0.2597656-0.3603516,0.4902344-0.7607422,0.6914062-1.2001953v-4.3496094
				c-0.4609375,0-0.9208984,0.0146484-1.3808594,0.0449219c-0.4599609,0.0292969-0.8808594,0.0644531-1.2597656,0.1044922
				C410.1943359,122.859375,409.7744141,122.9101562,409.375,122.9501953z"/>
		</g>
		<g>
			<path d="M427.8242188,122.9501953c-1-0.0400391-1.9003906-0.2001953-2.6992188-0.4794922
				c-0.3408203-0.1210938-0.6708984-0.2705078-0.9902344-0.4511719c-0.3203125-0.1796875-0.6103516-0.3994141-0.8701172-0.6601562
				c-0.2607422-0.2597656-0.4648438-0.5644531-0.6152344-0.9140625c-0.1494141-0.3496094-0.2246094-0.765625-0.2246094-1.2451172
				c0-0.5595703,0.1298828-1.0947266,0.3896484-1.6044922c0.2597656-0.5107422,0.6953125-0.9550781,1.3046875-1.3359375
				c0.6103516-0.3789062,1.4150391-0.6845703,2.4160156-0.9140625c1-0.2304688,2.2294922-0.3457031,3.6894531-0.3457031h7.9501953
				v0.4501953L436.375,115.9003906v13.1992188l1.7998047,0.4501953V130h-8.4003906v-0.4501953l1.7998047-0.4501953v-5.6992188
				h-2.3994141l-1.3505859,4.1992188C427.625,128.2001953,427.21875,128.75,426.609375,129.25s-1.4052734,0.75-2.3847656,0.75
				H420.625v-0.4501953l1.5-0.4501953L423.3242188,125.5c0.2001953-0.5996094,0.5449219-1.0605469,1.0351562-1.3798828
				s0.9951172-0.5595703,1.515625-0.7197266c0.5996094-0.1796875,1.25-0.2802734,1.9492188-0.3007812V122.9501953z
				 M431.5742188,122.6503906V115.75h-1.3496094c-0.8398438,0-1.5253906,0.2900391-2.0546875,0.8701172
				c-0.5302734,0.5800781-0.7949219,1.4404297-0.7949219,2.5800781s0.2646484,2,0.7949219,2.5791016
				c0.5292969,0.5810547,1.2148438,0.8710938,2.0546875,0.8710938H431.5742188z"/>
		</g>
	</g>
	<g>
		<path d="M734.5,96c-0.2558594,0-0.5117188-0.0976562-0.7070312-0.2929688l-10-10
			c-0.390625-0.390625-0.390625-1.0234375,0-1.4140625l10-10c0.390625-0.390625,1.0234375-0.390625,1.4140625,0
			s0.390625,1.0234375,0,1.4140625L725.9140625,85l9.2929688,9.2929688c0.390625,0.390625,0.390625,1.0234375,0,1.4140625
			C735.0117188,95.9023438,734.7558594,96,734.5,96z"/>
	</g>
	<g>
		<path d="M369.5,86h-325c-0.5527344,0-1-0.4472656-1-1s0.4472656-1,1-1h325c0.5527344,0,1,0.4472656,1,1S370.0527344,86,369.5,86z"
			/>
	</g>
	<g>
		<path d="M719.5,86h-325c-0.5527344,0-1-0.4472656-1-1s0.4472656-1,1-1h325c0.5527344,0,1,0.4472656,1,1S720.0527344,86,719.5,86z"
			/>
	</g>
	<g>
		<path d="M29.5,96.0009766c-0.2558594,0-0.5117188-0.0976562-0.7070312-0.2929688
			c-0.390625-0.390625-0.390625-1.0234375,0-1.4140625l9.2929688-9.2929688l-9.2929688-9.2929688
			c-0.390625-0.390625-0.390625-1.0234375,0-1.4140625s1.0234375-0.390625,1.4140625,0l10,10
			c0.390625,0.390625,0.390625,1.0234375,0,1.4140625l-10,10C30.0117188,95.9033203,29.7558594,96.0009766,29.5,96.0009766z"/>
	</g>
	<g>
		<path d="M739.5,91c-0.2558594,0-0.5117188-0.0976562-0.7070312-0.2929688l-5-5c-0.390625-0.390625-0.390625-1.0234375,0-1.4140625
			l5-5c0.390625-0.390625,1.0234375-0.390625,1.4140625,0s0.390625,1.0234375,0,1.4140625L735.9140625,85l4.2929688,4.2929688
			c0.390625,0.390625,0.390625,1.0234375,0,1.4140625C740.0117188,90.9023438,739.7558594,91,739.5,91z"/>
	</g>
	<g>
		<path d="M24.5,91c-0.2558594,0-0.5117188-0.0976562-0.7070312-0.2929688c-0.390625-0.390625-0.390625-1.0234375,0-1.4140625
			L28.0859375,85l-4.2929688-4.2929688c-0.390625-0.390625-0.390625-1.0234375,0-1.4140625s1.0234375-0.390625,1.4140625,0l5,5
			c0.390625,0.390625,0.390625,1.0234375,0,1.4140625l-5,5C25.0117188,90.9023438,24.7558594,91,24.5,91z"/>
	</g>
	<g>
		<path d="M382,93.5c-0.2558594,0-0.5117188-0.0976562-0.7070312-0.2929688l-7.5-7.5
			c-0.390625-0.390625-0.390625-1.0234375,0-1.4140625l7.5-7.5c0.390625-0.390625,1.0234375-0.390625,1.4140625,0l7.5,7.5
			c0.390625,0.390625,0.390625,1.0234375,0,1.4140625l-7.5,7.5C382.5117188,93.4023438,382.2558594,93.5,382,93.5z M375.9140625,85
			L382,91.0859375L388.0859375,85L382,78.9140625L375.9140625,85z"/>
	</g>
</g>
<g id="specctr" display="none">
	<g id="Text_Properties" display="inline">
	</g>
	<g id="Dimensions" display="inline">
	</g>
	<g id="Object_Properties" display="inline">
	</g>
</g>
<g id="Слой_6">
</g>
<g id="Слой_7">
</g>
</svg>
