<?xml version="1.0" encoding="utf-8"?>
<!-- Generator: Adobe Illustrator 16.0.4, SVG Export Plug-In . SVG Version: 6.00 Build 0)  -->
<!DOCTYPE svg PUBLIC "-//W3C//DTD SVG 1.1//EN" "http://www.w3.org/Graphics/SVG/1.1/DTD/svg11.dtd" [
	<!ENTITY ns_flows "http://ns.adobe.com/Flows/1.0/">
	<!ENTITY ns_extend "http://ns.adobe.com/Extensibility/1.0/">
	<!ENTITY ns_ai "http://ns.adobe.com/AdobeIllustrator/10.0/">
	<!ENTITY ns_graphs "http://ns.adobe.com/Graphs/1.0/">
	<!ENTITY ns_vars "http://ns.adobe.com/Variables/1.0/">
	<!ENTITY ns_imrep "http://ns.adobe.com/ImageReplacement/1.0/">
	<!ENTITY ns_sfw "http://ns.adobe.com/SaveForWeb/1.0/">
	<!ENTITY ns_custom "http://ns.adobe.com/GenericCustomNamespace/1.0/">
	<!ENTITY ns_adobe_xpath "http://ns.adobe.com/XPath/1.0/">
]>
<svg version="1.1" id="Слой_1" xmlns:x="&ns_extend;" xmlns:i="&ns_ai;" xmlns:graph="&ns_graphs;"
	 xmlns="http://www.w3.org/2000/svg" xmlns:xlink="http://www.w3.org/1999/xlink" xmlns:a="http://ns.adobe.com/AdobeSVGViewerExtensions/3.0/"
	 x="0px" y="0px" width="725px" height="120px" viewBox="0 0 725 120" enable-background="new 0 0 725 120" xml:space="preserve">
<metadata>
	<sfw  xmlns="&ns_sfw;">
		<slices></slices>
		<sliceSourceBounds  width="16383" height="16386" y="-8835" x="-7550" bottomLeftOrigin="true"></sliceSourceBounds>
		<optimizationSettings>
			<targetSettings  fileFormat="PNG24Format" targetSettingsID="0">
				<PNG24Format  transparency="false" noMatteColor="false" interlaced="false" matteColor="#FFFFFF" filtered="false">
					</PNG24Format>
			</targetSettings>
		</optimizationSettings>
	</sfw>
</metadata>
<g>
	<path d="M224.5058594,29.2001953v9.5996094l2.3994141,0.6000977V40h-11.3994141v-0.6000977l2.3994141-0.6000977V13.2001953
		l-2.3994141-0.6000977V12h11.1992188c2.2929688,0,4.2333984,0.1938477,5.8203125,0.5800781
		c1.5859375,0.3867188,2.8662109,0.9536133,3.8398438,1.699707c0.9726562,0.7470703,1.6738281,1.6469727,2.0996094,2.7001953
		c0.4267578,1.0537109,0.640625,2.2602539,0.640625,3.6201172s-0.2138672,2.5668945-0.640625,3.6201172
		c-0.4257812,1.0537109-1.1269531,1.9536133-2.0996094,2.699707c-0.9736328,0.7470703-2.2539062,1.3139648-3.8398438,1.7001953
		c-1.5869141,0.3867188-3.5273438,0.5800781-5.8203125,0.5800781H224.5058594z M226.7050781,28.2001953
		c0.8007812,0,1.5410156-0.1533203,2.2207031-0.4599609s1.2734375-0.7734375,1.7792969-1.4003906
		c0.5058594-0.6259766,0.9003906-1.4130859,1.1796875-2.3598633c0.28125-0.9462891,0.4199219-2.0732422,0.4199219-3.3798828
		c0-2.5864258-0.5332031-4.5-1.5996094-5.7402344c-1.0664062-1.2397461-2.4003906-1.8598633-4-1.8598633h-2.1992188v15.2001953
		H226.7050781z"/>
	<path d="M241.2324219,13.2001953l-2-0.6000977V12h5.2001953c1.4130859,0,2.5332031,0.3398438,3.3603516,1.0200195
		c0.8261719,0.6801758,1.5058594,1.4736328,2.0400391,2.3798828l6.7597656,11.7202148l5.8398438-13.3203125l-3-1.199707V12
		h7.4003906v0.6000977l-3.2001953,1.199707l-9,20.6000977c-0.9599609,2.2138672-1.9199219,3.800293-2.8798828,4.7602539
		s-2,1.4399414-3.1201172,1.4399414c-1.2001953,0-2.1669922-0.347168-2.9003906-1.0400391
		c-0.7333984-0.6933594-1.0996094-1.5463867-1.0996094-2.5600586c0-1.0131836,0.3066406-1.8330078,0.9199219-2.4599609
		c0.6132812-0.6264648,1.3730469-0.9399414,2.2802734-0.9399414c0.2128906,0,0.40625,0.0136719,0.5791016,0.0400391
		c0.1738281,0.0268555,0.3408203,0.0537109,0.5,0.0800781c0.1601562,0.0268555,0.3339844,0.0537109,0.5205078,0.0795898v5.6000977
		c0.6132812-0.105957,1.2607422-0.5400391,1.9404297-1.2998047c0.6796875-0.7602539,1.3662109-1.9931641,2.0595703-3.7001953
		L241.2324219,13.2001953z"/>
	<path d="M278.6796875,11.3999023c0.9335938,0,1.7929688,0.1401367,2.5800781,0.4199219
		c0.7871094,0.2802734,1.4609375,0.5800781,2.0205078,0.9003906C283.9462891,13.09375,284.5332031,13.5200195,285.0400391,14
		c0.2138672-0.3461914,0.4462891-0.6601562,0.7001953-0.9399414c0.2529297-0.2802734,0.4863281-0.5131836,0.7001953-0.7001953
		c0.2666016-0.2128906,0.5322266-0.3999023,0.7998047-0.5600586h1v7.6000977h-1.5996094
		c-0.3740234-1.2797852-0.8945312-2.4399414-1.5605469-3.4799805c-0.5605469-0.8798828-1.3066406-1.6860352-2.2402344-2.4199219
		c-0.9335938-0.7329102-2.0664062-1.1000977-3.3994141-1.1000977c-0.7998047,0-1.5869141,0.2202148-2.3603516,0.6601562
		s-1.4599609,1.1870117-2.0605469,2.2397461c-0.5996094,1.0537109-1.0791016,2.4541016-1.4394531,4.2001953
		c-0.359375,1.7470703-0.5400391,3.9135742-0.5400391,6.5c0,2.6137695,0.1865234,4.7871094,0.5595703,6.5200195
		c0.3730469,1.7338867,0.8935547,3.1269531,1.5605469,4.1801758c0.6660156,1.0537109,1.453125,1.7998047,2.359375,2.2397461
		s1.8808594,0.6601562,2.9208984,0.6601562c0.9599609,0,1.8798828-0.206543,2.7597656-0.6201172
		c0.8798828-0.4130859,1.6669922-0.9731445,2.3603516-1.6801758c0.6933594-0.7060547,1.2460938-1.5126953,1.6601562-2.4199219
		c0.4121094-0.90625,0.6191406-1.8662109,0.6191406-2.8798828h1c0,1.1469727-0.2333984,2.2402344-0.6992188,3.2797852
		c-0.4667969,1.0400391-1.1142578,1.9541016-1.9404297,2.7402344c-0.8271484,0.7866211-1.7998047,1.4135742-2.9199219,1.8798828
		s-2.3339844,0.7001953-3.6396484,0.7001953c-2.1074219,0-4-0.3203125-5.6796875-0.9599609
		c-1.6806641-0.6401367-3.1074219-1.5800781-4.28125-2.8203125c-1.1738281-1.2397461-2.0732422-2.7661133-2.6992188-4.5795898
		c-0.6269531-1.8134766-0.9404297-3.8935547-0.9404297-6.2402344c0-2.3461914,0.3066406-4.4262695,0.9208984-6.2402344
		c0.6123047-1.8129883,1.4794922-3.3398438,2.5996094-4.5795898c1.1191406-1.2402344,2.453125-2.1801758,4-2.8203125
		C275.1064453,11.7202148,276.8134766,11.3999023,278.6796875,11.3999023z"/>
	<path d="M304.1240234,11.3999023c0.9326172,0,1.7929688,0.1401367,2.5800781,0.4199219
		c0.7861328,0.2802734,1.4599609,0.5800781,2.0205078,0.9003906C309.390625,13.09375,309.9765625,13.5200195,310.484375,14
		c0.2128906-0.3461914,0.4453125-0.6601562,0.6992188-0.9399414c0.2539062-0.2802734,0.4863281-0.5131836,0.7011719-0.7001953
		c0.265625-0.2128906,0.5322266-0.3999023,0.7988281-0.5600586h1v7.6000977h-1.5996094
		c-0.3730469-1.2797852-0.8935547-2.4399414-1.5605469-3.4799805c-0.5595703-0.8798828-1.3066406-1.6860352-2.2392578-2.4199219
		c-0.9345703-0.7329102-2.0673828-1.1000977-3.3994141-1.1000977c-0.8007812,0-1.5878906,0.2202148-2.3613281,0.6601562
		s-1.4589844,1.1870117-2.0595703,2.2397461c-0.5996094,1.0537109-1.0791016,2.4541016-1.4404297,4.2001953
		c-0.359375,1.7470703-0.5390625,3.9135742-0.5390625,6.5c0,2.6137695,0.1855469,4.7871094,0.5595703,6.5200195
		c0.3730469,1.7338867,0.8935547,3.1269531,1.5595703,4.1801758c0.6669922,1.0537109,1.453125,1.7998047,2.3603516,2.2397461
		c0.90625,0.4399414,1.8798828,0.6601562,2.9208984,0.6601562c0.9589844,0,1.8789062-0.206543,2.7597656-0.6201172
		c0.8789062-0.4130859,1.6660156-0.9731445,2.359375-1.6801758c0.6933594-0.7060547,1.2460938-1.5126953,1.6601562-2.4199219
		c0.4130859-0.90625,0.6201172-1.8662109,0.6201172-2.8798828h1c0,1.1469727-0.2333984,2.2402344-0.7001953,3.2797852
		c-0.4667969,1.0400391-1.1132812,1.9541016-1.9394531,2.7402344c-0.8271484,0.7866211-1.8007812,1.4135742-2.9199219,1.8798828
		c-1.1210938,0.4663086-2.3339844,0.7001953-3.640625,0.7001953c-2.1074219,0-4-0.3203125-5.6796875-0.9599609
		C297.7246094,39,296.296875,38.0600586,295.1240234,36.8198242c-1.1738281-1.2397461-2.0732422-2.7661133-2.7001953-4.5795898
		S291.484375,28.3466797,291.484375,26c0-2.3461914,0.3066406-4.4262695,0.9199219-6.2402344
		c0.6132812-1.8129883,1.4804688-3.3398438,2.5996094-4.5795898c1.1201172-1.2402344,2.453125-2.1801758,4-2.8203125
		C300.5507812,11.7202148,302.2578125,11.3999023,304.1240234,11.3999023z"/>
	<path d="M331.6875,24.7998047c1.8935547,0,3.2929688,0.340332,4.2001953,1.0200195
		c0.90625,0.6801758,1.5068359,1.4741211,1.7998047,2.3803711l3.6005859,10.5996094l2,0.6000977V40h-4.7998047
		c-1.4941406,0-2.6142578-0.3129883-3.3603516-0.9399414c-0.7470703-0.6264648-1.2939453-1.4462891-1.6396484-2.4599609
		l-3.8007812-11h-3.5996094v13.199707l2.4003906,0.6000977V40h-11.4003906v-0.6000977l2.4003906-0.6000977V13.2001953
		l-2.4003906-0.6000977V12h11.4003906v0.6000977l-2.4003906,0.6000977v11.3999023h2c1.0136719,0,1.8535156-0.3330078,2.5195312-1
		c0.6660156-0.6665039,1.1601562-1.6000977,1.4804688-2.800293l1.4003906-5.199707
		c0.3203125-1.2001953,0.8457031-2.1665039,1.5800781-2.8999023c0.7324219-0.7333984,1.6054688-1.1000977,2.6191406-1.1000977
		c1.2001953,0,2.1660156,0.3466797,2.9003906,1.0400391c0.7324219,0.6938477,1.0996094,1.546875,1.0996094,2.5600586
		c0,1.0136719-0.3066406,1.8334961-0.9199219,2.4599609c-0.6132812,0.6269531-1.3730469,0.9399414-2.2792969,0.9399414
		c-0.2148438,0-0.4199219-0.0063477-0.6210938-0.0200195c-0.1992188-0.0131836-0.3662109-0.0332031-0.5-0.0600586
		c-0.1855469-0.0263672-0.3457031-0.0664062-0.4794922-0.1201172v-5.6000977
		c-0.4267578,0.1069336-0.8466797,0.4003906-1.2597656,0.8803711s-0.7275391,1.1196289-0.9404297,1.9199219l-1.3994141,5.199707
		c-0.2138672,0.800293-0.4599609,1.4599609-0.7402344,1.9799805S331.9804688,23.7070312,331.6875,24
		c-0.3203125,0.3466797-0.6533203,0.6137695-1,0.7998047H331.6875z"/>
	<path d="M345.8515625,12.6000977V12h11.4003906v0.6000977l-2.4003906,0.6000977v20.199707l9.4003906-17.199707v-3
		l-2.4003906-0.6000977V12h11.4003906v0.6000977l-2.4003906,0.6000977v25.5996094l2.4003906,0.6000977V40h-11.4003906v-0.6000977
		l2.4003906-0.6000977v-20.199707l-9.4003906,17.199707v3l2.4003906,0.6000977V40h-11.4003906v-0.6000977l2.4003906-0.6000977
		V13.2001953L345.8515625,12.6000977z"/>
	<path d="M376.6503906,12.6000977V12h11.4003906v0.6000977l-2.4003906,0.6000977v20.199707l9.4003906-17.199707v-3
		l-2.4003906-0.6000977V12h11.4003906v0.6000977l-2.4003906,0.6000977v25.5996094l2.4003906,0.6000977V40h-11.4003906v-0.6000977
		l2.4003906-0.6000977v-20.199707l-9.4003906,17.199707v3l2.4003906,0.6000977V40h-11.4003906v-0.6000977l2.4003906-0.6000977
		V13.2001953L376.6503906,12.6000977z M390.2509766,8.3999023c0.6923828,0,1.2333984-0.0732422,1.6201172-0.2197266
		S392.4511719,7.9736328,392.4511719,8V3.6000977c0.1601562-0.0263672,0.3203125-0.0532227,0.4794922-0.0800781
		c0.1337891-0.0263672,0.2802734-0.0532227,0.4404297-0.0800781c0.1601562-0.0263672,0.3203125-0.0400391,0.4804688-0.0400391
		c0.6923828,0,1.265625,0.2270508,1.71875,0.6801758c0.453125,0.4536133,0.6806641,1.0268555,0.6806641,1.7197266
		c0,0.9072266-0.4541016,1.7001953-1.3603516,2.3803711c-0.90625,0.6796875-2.453125,1.0200195-4.6396484,1.0200195
		c-1.09375,0-2.0205078-0.0932617-2.7802734-0.2802734c-0.7597656-0.1860352-1.3798828-0.4331055-1.859375-0.7397461
		c-0.4804688-0.3066406-0.8271484-0.6665039-1.0410156-1.0800781c-0.2128906-0.4130859-0.3193359-0.8461914-0.3193359-1.300293
		c0-0.6928711,0.2255859-1.2661133,0.6796875-1.7197266c0.453125-0.453125,1.0263672-0.6801758,1.7197266-0.6801758
		c0.1337891,0,0.2871094,0.0136719,0.4609375,0.0400391c0.1728516,0.0268555,0.3261719,0.0537109,0.4589844,0.0800781
		c0.1601562,0.0268555,0.3203125,0.0537109,0.4804688,0.0800781V8c0-0.0263672,0.1933594,0.0336914,0.5800781,0.1801758
		S389.5566406,8.3999023,390.2509766,8.3999023z"/>
	<path d="M420.0507812,39c0.7197266-0.5332031,1.3730469-1.2260742,1.9589844-2.0800781
		c0.5068359-0.7197266,0.9863281-1.652832,1.4414062-2.7998047C423.9042969,32.9736328,424.1699219,31.6000977,424.25,30
		l0.8007812-16.6000977L422.25,12.6000977V12h21v0.6000977l-2.3994141,0.6000977V39h3.7998047v7.7998047h-1.1992188
		c-0.6679688-0.4799805-1.2402344-1.0668945-1.7207031-1.7597656c-0.4267578-0.5869141-0.8144531-1.2939453-1.1601562-2.1201172
		c-0.3466797-0.8266602-0.5195312-1.7998047-0.5195312-2.9199219h-18.5996094c0,1.1201172-0.1806641,2.0932617-0.5410156,2.9199219
		c-0.359375,0.8261719-0.7539062,1.5332031-1.1796875,2.1201172c-0.4804688,0.6928711-1.0400391,1.2797852-1.6796875,1.7597656
		h-1.2001953V39H420.0507812z M425.4511719,30c-0.0800781,1.6000977-0.3339844,2.9736328-0.7607422,4.1201172
		c-0.4267578,1.1469727-0.8798828,2.0800781-1.3603516,2.7998047c-0.5595703,0.8540039-1.1865234,1.546875-1.8789062,2.0800781
		H434.25V13h-8L425.4511719,30z"/>
	<path d="M471.7578125,26c0,2.3466797-0.3125,4.4267578-0.9394531,6.2402344s-1.5058594,3.3398438-2.640625,4.5795898
		c-1.1328125,1.2402344-2.5,2.1801758-4.0996094,2.8203125c-1.5996094,0.6396484-3.3730469,0.9599609-5.3203125,0.9599609
		c-1.9462891,0-3.71875-0.3203125-5.3193359-0.9599609c-1.6005859-0.6401367-2.9667969-1.5800781-4.1005859-2.8203125
		c-1.1328125-1.2397461-2.0136719-2.7661133-2.6386719-4.5795898c-0.6269531-1.8134766-0.9414062-3.8935547-0.9414062-6.2402344
		c0-2.3461914,0.3144531-4.4262695,0.9414062-6.2402344c0.625-1.8129883,1.5058594-3.3398438,2.6386719-4.5795898
		c1.1337891-1.2402344,2.5-2.1801758,4.1005859-2.8203125c1.6005859-0.6396484,3.3730469-0.9599609,5.3193359-0.9599609
		c1.9472656,0,3.7207031,0.3203125,5.3203125,0.9599609c1.5996094,0.6401367,2.9667969,1.5800781,4.0996094,2.8203125
		c1.1347656,1.2397461,2.0136719,2.7666016,2.640625,4.5795898C471.4453125,21.5737305,471.7578125,23.6538086,471.7578125,26z
		 M464.7578125,26c0-2.6401367-0.1796875-4.8461914-0.5390625-6.6201172
		c-0.359375-1.7729492-0.8261719-3.1928711-1.4003906-4.2597656c-0.5742188-1.0664062-1.2207031-1.8203125-1.9394531-2.2602539
		c-0.7207031-0.4399414-1.4277344-0.659668-2.1210938-0.659668s-1.3994141,0.2197266-2.1191406,0.659668
		c-0.7207031,0.4399414-1.3671875,1.1938477-1.9394531,2.2602539c-0.5742188,1.0668945-1.0410156,2.4868164-1.4003906,4.2597656
		c-0.3603516,1.7739258-0.5410156,3.9799805-0.5410156,6.6201172s0.1806641,4.8466797,0.5410156,6.6201172
		c0.359375,1.7734375,0.8261719,3.1938477,1.4003906,4.2597656c0.5722656,1.0668945,1.21875,1.8203125,1.9394531,2.2602539
		c0.7197266,0.4399414,1.4257812,0.659668,2.1191406,0.659668s1.4003906-0.2197266,2.1210938-0.659668
		c0.71875-0.4399414,1.3652344-1.1933594,1.9394531-2.2602539c0.5742188-1.065918,1.0410156-2.4863281,1.4003906-4.2597656
		S464.7578125,28.6401367,464.7578125,26z"/>
	<path d="M509.4941406,12v0.6000977l-2.4003906,0.6000977v25.5996094l2.4003906,0.6000977V40H498.09375v-0.6000977
		l2.4003906-0.6000977V17L491.09375,40.3999023h-1.1992188L477.6933594,17v21.2001953l3.2011719,1.199707V40h-7.5996094v-0.6000977
		l3.1992188-1.199707v-25l-2.8007812-0.6000977V12h5.4003906c0.7460938,0,1.4003906,0.0869141,1.9609375,0.2597656
		c0.5585938,0.1738281,1.0527344,0.4072266,1.4804688,0.7001953c0.4257812,0.2939453,0.7929688,0.6469727,1.0996094,1.0600586
		c0.3066406,0.4135742,0.5917969,0.8735352,0.859375,1.3798828l8.7207031,16.6801758l6.6796875-16.6801758
		c0.2128906-0.5600586,0.4589844-1.0463867,0.7402344-1.4599609c0.2792969-0.4130859,0.6191406-0.7661133,1.0195312-1.0600586
		c0.4003906-0.2929688,0.8925781-0.5131836,1.4804688-0.659668C503.7207031,12.0737305,504.4414062,12,505.2949219,12H509.4941406z"
		/>
</g>
<g>
	<path d="M316.5791016,100.8999023l-1.7998047-0.449707V100h8.4003906v0.4501953l-1.8007812,0.449707v13.2001953l1.8007812,0.449707
		V115h-8.4003906v-0.4501953l1.7998047-0.449707v-5.25c-0.2402344,0.1601562-0.5205078,0.2900391-0.8398438,0.3901367
		c-0.2802734,0.1000977-0.6152344,0.1850586-1.0048828,0.2548828c-0.390625,0.0703125-0.8251953,0.1049805-1.3046875,0.1049805
		c-2.0214844,0-3.5009766-0.4052734-4.4404297-1.215332c-0.9404297-0.8095703-1.4101562-1.8544922-1.4101562-3.1347656v-4.3500977
		l-1.7998047-0.449707V100h8.4003906v0.4501953l-1.8007812,0.449707V105.25c0,0.6801758,0.0546875,1.25,0.1650391,1.7099609
		c0.1103516,0.4604492,0.2597656,0.8300781,0.4501953,1.1098633c0.1894531,0.2802734,0.4248047,0.4799805,0.7050781,0.6000977
		c0.2792969,0.1201172,0.5898438,0.1801758,0.9296875,0.1801758c0.2597656,0,0.5097656-0.034668,0.75-0.1049805
		c0.2402344-0.0698242,0.4501953-0.1547852,0.6308594-0.2548828c0.21875-0.1000977,0.4091797-0.2299805,0.5693359-0.3901367
		V100.8999023z"/>
	<path d="M331.8789062,99.5498047c1.2001953,0,2.265625,0.1606445,3.1953125,0.4799805
		c0.9296875,0.3203125,1.7148438,0.7651367,2.3544922,1.3354492c0.6396484,0.5698242,1.125,1.25,1.4550781,2.0395508
		c0.3300781,0.7905273,0.4951172,1.6552734,0.4951172,2.5952148v8.1000977l1.7998047,0.449707V115h-2.7001953
		c-0.7197266,0-1.2998047-0.1147461-1.7402344-0.3452148c-0.4394531-0.2294922-0.7890625-0.484375-1.0488281-0.7646484
		c-0.3007812-0.3398438-0.5214844-0.7202148-0.6601562-1.1401367c-0.2607422,0.5205078-0.5898438,0.9702148-0.9902344,1.3500977
		c-0.3398438,0.340332-0.7910156,0.6499023-1.3496094,0.9296875c-0.5605469,0.2802734-1.2304688,0.4204102-2.0107422,0.4204102
		c-0.9404297,0-1.7548828-0.1049805-2.4443359-0.3154297c-0.6904297-0.2099609-1.265625-0.4995117-1.7255859-0.8696289
		s-0.8056641-0.7998047-1.0341797-1.2900391c-0.2304688-0.4897461-0.3457031-1.0151367-0.3457031-1.5751953
		c0-0.4599609,0.0498047-0.8847656,0.1503906-1.2749023c0.0996094-0.3901367,0.21875-0.7348633,0.359375-1.0351562
		c0.1601562-0.3598633,0.3398438-0.6899414,0.5400391-0.9897461c0.8408203-0.199707,1.7294922-0.3798828,2.6708984-0.5400391
		c0.7988281-0.1396484,1.6992188-0.2749023,2.6992188-0.4052734c1-0.1293945,2.0097656-0.2143555,3.0302734-0.2548828V106
		c0-1.159668-0.0751953-2.1196289-0.2255859-2.8798828c-0.1494141-0.7597656-0.3652344-1.3598633-0.6445312-1.800293
		c-0.2802734-0.4394531-0.625-0.7446289-1.0351562-0.9150391c-0.4101562-0.1694336-0.875-0.2548828-1.3945312-0.2548828
		c-0.2207031,0-0.4199219,0.0151367-0.6005859,0.0449219c-0.1796875,0.0302734-0.3408203,0.0654297-0.4794922,0.1049805
		c-0.1601562,0.0600586-0.3007812,0.1103516-0.4199219,0.1503906v4.5c-0.140625,0.0400391-0.2705078,0.0703125-0.390625,0.0898438
		c-0.1191406,0.0200195-0.2451172,0.0351562-0.375,0.0449219c-0.1298828,0.0102539-0.2753906,0.0151367-0.4345703,0.0151367
		c-0.6806641,0-1.2255859-0.2050781-1.6357422-0.6152344c-0.4101562-0.409668-0.6142578-0.9545898-0.6142578-1.6347656
		c0-0.4199219,0.1044922-0.8251953,0.3154297-1.215332c0.2089844-0.3896484,0.5390625-0.7392578,0.9892578-1.0498047
		c0.4501953-0.3095703,1.0244141-0.5595703,1.7255859-0.75C330.0585938,99.6450195,330.8984375,99.5498047,331.8789062,99.5498047z
		 M330.6787109,107.9501953c-0.1201172,0.2597656-0.2197266,0.5600586-0.2998047,0.8999023
		c-0.0800781,0.2802734-0.1503906,0.6103516-0.2099609,0.9897461c-0.0595703,0.3803711-0.0898438,0.800293-0.0898438,1.2602539
		c0,1.199707,0.1845703,2.050293,0.5546875,2.5498047c0.3701172,0.5004883,0.7841797,0.75,1.2451172,0.75
		c0.4599609,0,0.8554688-0.1245117,1.1855469-0.375c0.3300781-0.2495117,0.6035156-0.5249023,0.8242188-0.824707
		c0.2597656-0.3603516,0.4902344-0.7602539,0.6904297-1.2001953v-4.3500977c-0.4599609,0-0.9208984,0.0151367-1.3798828,0.0449219
		c-0.4609375,0.0302734-0.8808594,0.0654297-1.2597656,0.1049805
		C331.4980469,107.8598633,331.078125,107.9101562,330.6787109,107.9501953z"/>
	<path d="M352.8613281,100.4501953V100h8.4003906v0.4501953l-1.8007812,0.449707v13.2001953l1.8007812,0.449707V115h-8.4003906
		v-0.4501953l1.7998047-0.449707v-9.8999023l-4.7998047,8.25v1.6499023l1.7998047,0.449707V115h-8.3994141v-0.4501953
		l1.7988281-0.449707v-13.2001953l-1.7988281-0.449707V100h8.3994141v0.4501953l-1.7998047,0.449707v9.8999023l4.7998047-8.25
		v-1.6499023L352.8613281,100.4501953z M352.2617188,97.2998047c0.5195312,0,0.9238281-0.0546875,1.2148438-0.1650391
		c0.2890625-0.109375,0.4345703-0.1542969,0.4345703-0.1347656v-3.2998047
		c0.1201172-0.0200195,0.2392578-0.0400391,0.3603516-0.0600586c0.0996094-0.0200195,0.2089844-0.0400391,0.3300781-0.0600586
		c0.1191406-0.0195312,0.2392578-0.0302734,0.359375-0.0302734c0.5195312,0,0.9492188,0.1704102,1.2900391,0.5102539
		c0.3398438,0.340332,0.5107422,0.7700195,0.5107422,1.2900391c0,0.6801758-0.3408203,1.2749023-1.0205078,1.784668
		c-0.6806641,0.5102539-1.8408203,0.7651367-3.4794922,0.7651367c-0.8203125,0-1.515625-0.0698242-2.0859375-0.2099609
		c-0.5703125-0.1396484-1.0351562-0.324707-1.3945312-0.5551758c-0.3603516-0.2294922-0.6210938-0.4995117-0.7802734-0.8095703
		c-0.1601562-0.3100586-0.2392578-0.6347656-0.2392578-0.9750977c0-0.5200195,0.1689453-0.949707,0.5097656-1.2900391
		c0.3398438-0.3398438,0.7695312-0.5102539,1.2890625-0.5102539c0.0996094,0,0.2148438,0.0107422,0.3457031,0.0302734
		c0.1289062,0.0200195,0.2441406,0.0400391,0.3447266,0.0600586c0.1201172,0.0200195,0.2402344,0.0400391,0.3603516,0.0600586V97
		c0-0.0195312,0.1445312,0.0253906,0.4345703,0.1347656C351.3359375,97.2451172,351.7402344,97.2998047,352.2617188,97.2998047z"/>
	<path d="M372.9335938,100.4501953V100h8.4003906v0.4501953l-1.8007812,0.449707v13.2001953l1.8007812,0.449707V115h-8.4003906
		v-0.4501953l1.7998047-0.449707v-6.300293h-4.5v6.300293l1.7998047,0.449707V115h-8.3994141v-0.4501953l1.7998047-0.449707
		v-13.2001953l-1.7998047-0.449707V100h8.3994141v0.4501953l-1.7998047,0.449707v6.1499023h4.5v-6.1499023L372.9335938,100.4501953z
		"/>
	<path d="M390.0488281,99.5498047c1.1992188,0,2.2646484,0.1606445,3.1943359,0.4799805
		c0.9306641,0.3203125,1.7148438,0.7651367,2.3544922,1.3354492c0.640625,0.5698242,1.125,1.25,1.4550781,2.0395508
		c0.3300781,0.7905273,0.4960938,1.6552734,0.4960938,2.5952148v8.1000977l1.7988281,0.449707V115h-2.6992188
		c-0.7207031,0-1.3007812-0.1147461-1.7402344-0.3452148c-0.4394531-0.2294922-0.7900391-0.484375-1.0498047-0.7646484
		c-0.2998047-0.3398438-0.5205078-0.7202148-0.6601562-1.1401367c-0.2607422,0.5205078-0.5898438,0.9702148-0.9892578,1.3500977
		c-0.3408203,0.340332-0.7910156,0.6499023-1.3505859,0.9296875c-0.5595703,0.2802734-1.2294922,0.4204102-2.0107422,0.4204102
		c-0.9394531,0-1.7539062-0.1049805-2.4443359-0.3154297c-0.6904297-0.2099609-1.2646484-0.4995117-1.7255859-0.8696289
		c-0.4589844-0.3701172-0.8046875-0.7998047-1.0341797-1.2900391c-0.2304688-0.4897461-0.3447266-1.0151367-0.3447266-1.5751953
		c0-0.4599609,0.0488281-0.8847656,0.1494141-1.2749023s0.2197266-0.7348633,0.3603516-1.0351562
		c0.1601562-0.3598633,0.3398438-0.6899414,0.5390625-0.9897461c0.8408203-0.199707,1.7304688-0.3798828,2.6708984-0.5400391
		c0.7998047-0.1396484,1.7001953-0.2749023,2.7001953-0.4052734c1-0.1293945,2.0097656-0.2143555,3.0292969-0.2548828V106
		c0-1.159668-0.0742188-2.1196289-0.2246094-2.8798828c-0.1503906-0.7597656-0.3652344-1.3598633-0.6445312-1.800293
		c-0.28125-0.4394531-0.6259766-0.7446289-1.0351562-0.9150391c-0.4101562-0.1694336-0.875-0.2548828-1.3955078-0.2548828
		c-0.2197266,0-0.4199219,0.0151367-0.6005859,0.0449219c-0.1796875,0.0302734-0.3398438,0.0654297-0.4794922,0.1049805
		c-0.1601562,0.0600586-0.2998047,0.1103516-0.4199219,0.1503906v4.5c-0.1396484,0.0400391-0.2705078,0.0703125-0.3896484,0.0898438
		c-0.1201172,0.0200195-0.2460938,0.0351562-0.375,0.0449219c-0.1308594,0.0102539-0.2753906,0.0151367-0.4355469,0.0151367
		c-0.6796875,0-1.2246094-0.2050781-1.6347656-0.6152344c-0.4101562-0.409668-0.6152344-0.9545898-0.6152344-1.6347656
		c0-0.4199219,0.1054688-0.8251953,0.3154297-1.215332c0.2099609-0.3896484,0.5400391-0.7392578,0.9892578-1.0498047
		c0.4511719-0.3095703,1.0253906-0.5595703,1.7255859-0.75C388.2285156,99.6450195,389.0683594,99.5498047,390.0488281,99.5498047z
		 M388.8476562,107.9501953c-0.1191406,0.2597656-0.2197266,0.5600586-0.2988281,0.8999023
		c-0.0800781,0.2802734-0.1503906,0.6103516-0.2109375,0.9897461c-0.0595703,0.3803711-0.0898438,0.800293-0.0898438,1.2602539
		c0,1.199707,0.1855469,2.050293,0.5546875,2.5498047c0.3710938,0.5004883,0.7851562,0.75,1.2460938,0.75
		c0.4589844,0,0.8544922-0.1245117,1.1845703-0.375c0.3300781-0.2495117,0.6044922-0.5249023,0.8251953-0.824707
		c0.2597656-0.3603516,0.4902344-0.7602539,0.6894531-1.2001953v-4.3500977c-0.4599609,0-0.9199219,0.0151367-1.3798828,0.0449219
		c-0.4599609,0.0302734-0.8798828,0.0654297-1.2597656,0.1049805
		C389.6679688,107.8598633,389.2480469,107.9101562,388.8476562,107.9501953z"/>
	<path d="M408.1210938,107.9501953c-1.0009766-0.0400391-1.9003906-0.199707-2.7011719-0.4799805
		c-0.3398438-0.1201172-0.6699219-0.2700195-0.9892578-0.4501953c-0.3203125-0.1801758-0.6103516-0.3999023-0.8701172-0.6601562
		c-0.2597656-0.2597656-0.4648438-0.5649414-0.6152344-0.9150391c-0.1503906-0.3496094-0.2246094-0.7646484-0.2246094-1.2446289
		c0-0.5600586,0.1298828-1.0952148,0.3896484-1.6049805c0.2597656-0.5102539,0.6943359-0.9550781,1.3056641-1.3354492
		c0.609375-0.3793945,1.4140625-0.6845703,2.4140625-0.9145508S409.0605469,100,410.5205078,100h7.9501953v0.4501953
		l-1.8007812,0.449707v13.2001953l1.8007812,0.449707V115h-8.4003906v-0.4501953l1.8007812-0.449707v-5.7001953h-2.4003906
		l-1.3496094,4.2001953c-0.2011719,0.6000977-0.6054688,1.1503906-1.2158203,1.6499023
		c-0.6103516,0.5-1.4052734,0.75-2.3847656,0.75h-3.6005859v-0.4501953l1.5-0.449707L403.6210938,110.5
		c0.1992188-0.6000977,0.5439453-1.0600586,1.0341797-1.3798828s0.9951172-0.5595703,1.5146484-0.7202148
		c0.6005859-0.1796875,1.25-0.2797852,1.9511719-0.2998047V107.9501953z M411.8710938,107.6499023V100.75h-1.3505859
		c-0.8398438,0-1.5253906,0.2900391-2.0556641,0.8701172c-0.5292969,0.5800781-0.7949219,1.4399414-0.7949219,2.5800781
		c0,1.1396484,0.265625,2,0.7949219,2.5795898c0.5302734,0.5805664,1.2158203,0.8701172,2.0556641,0.8701172H411.8710938z"/>
</g>
<polyline fill="none" stroke="#000000" stroke-width="2" stroke-linecap="round" stroke-linejoin="round" stroke-miterlimit="10" points="
	715,80 705,70 715,60 "/>
<line fill="none" stroke="#000000" stroke-width="2" stroke-linecap="round" stroke-linejoin="round" stroke-miterlimit="10" x1="25" y1="70" x2="350" y2="70"/>
<line fill="none" stroke="#000000" stroke-width="2" stroke-linecap="round" stroke-linejoin="round" stroke-miterlimit="10" x1="375" y1="70" x2="700" y2="70"/>
<polyline fill="none" stroke="#000000" stroke-width="2" stroke-linecap="round" stroke-linejoin="round" stroke-miterlimit="10" points="
	10,60.0009766 20,70.0009766 10,80.0009766 "/>
<polyline fill="none" stroke="#000000" stroke-width="2" stroke-linecap="round" stroke-linejoin="round" stroke-miterlimit="10" points="
	720,75 715,70 720,65 "/>
<polyline fill="none" stroke="#000000" stroke-width="2" stroke-linecap="round" stroke-linejoin="round" stroke-miterlimit="10" points="
	5,74.9995117 10,69.9995117 5,64.9995117 "/>
<linearGradient id="SVGID_1_" gradientUnits="userSpaceOnUse" x1="362.5" y1="62.5" x2="362.5" y2="77.5">
	<stop  offset="0" style="stop-color:#F9A825"/>
	<stop  offset="1" style="stop-color:#F57F17"/>
	<a:midPointStop  offset="0" style="stop-color:#F9A825"/>
	<a:midPointStop  offset="0.5" style="stop-color:#F9A825"/>
	<a:midPointStop  offset="1" style="stop-color:#F57F17"/>
</linearGradient>
<polygon fill="url(#SVGID_1_)" points="370,70 362.5,62.5 355,70 362.5,77.5 "/>
</svg>
